<?xml version="1.0" encoding="UTF-8" standalone="no"?>
<svg
   xmlns:dc="http://purl.org/dc/elements/1.1/"
   xmlns:cc="http://creativecommons.org/ns#"
   xmlns:rdf="http://www.w3.org/1999/02/22-rdf-syntax-ns#"
   xmlns:svg="http://www.w3.org/2000/svg"
   xmlns="http://www.w3.org/2000/svg"
   xmlns:sodipodi="http://sodipodi.sourceforge.net/DTD/sodipodi-0.dtd"
   xmlns:inkscape="http://www.inkscape.org/namespaces/inkscape"
   width="210mm"
   height="297mm"
   viewBox="0 0 210 297"
   version="1.1"
   id="svg15"
   inkscape:version="1.0.1 (3bc2e813f5, 2020-09-07)"
   sodipodi:docname="m.svg">
  <defs
     id="defs9" />
  <sodipodi:namedview
     id="base"
     pagecolor="#ffffff"
     bordercolor="#666666"
     borderopacity="1.0"
     inkscape:pageopacity="0.0"
     inkscape:pageshadow="2"
     inkscape:zoom="0.7"
     inkscape:cx="293.09707"
     inkscape:cy="539.61759"
     inkscape:document-units="mm"
     inkscape:current-layer="layer1"
     inkscape:document-rotation="0"
     showgrid="false"
     inkscape:window-width="1094"
     inkscape:window-height="1035"
     inkscape:window-x="29"
     inkscape:window-y="47"
     inkscape:window-maximized="0" />
  <metadata
     id="metadata12">
    <rdf:RDF>
      <cc:Work
         rdf:about="">
        <dc:format>image/svg+xml</dc:format>
        <dc:type
           rdf:resource="http://purl.org/dc/dcmitype/StillImage" />
        <dc:title></dc:title>
      </cc:Work>
    </rdf:RDF>
  </metadata>
  <g
     inkscape:label="Layer 1"
     inkscape:groupmode="layer"
     id="layer1">
    <circle
       id="path25"
       style="fill:#000000;stroke:#000000;stroke-width:0.264583"
       cx="-66.523811"
       cy="73.327377"
       r="0.02664165" />
    <circle
       id="path31"
       style="fill:#000000;stroke:#000000;stroke-width:0.264583"
       cx="-40.821426"
       cy="8.3154764"
       r="0.02664165" />
    <path
       style="fill:#000000;stroke-width:0.264583"
       id="path43"
       d="m 20.416782,195.01362 c 0.09941,1.05273 0.149919,2.11123 0.298235,3.1582 0.674046,4.75809 1.671765,10.10642 4.201523,14.27208 0.809803,1.33347 1.641745,2.79446 2.96437,3.62186 1.460003,0.91334 3.324283,0.9013 4.986422,1.35195 2.33647,-0.7677 4.984224,-0.90773 7.009405,-2.30312 7.092371,-4.88675 15.940479,-18.34909 19.73942,-24.23734 5.040738,-7.81301 9.749088,-15.83936 14.363641,-23.91142 12.713949,-22.24002 17.167156,-31.79456 28.711322,-54.65663 8.50747,-18.179458 12.57333,-26.43374 20.20123,-44.2287 2.03248,-4.741521 3.99888,-9.512808 5.85297,-14.326888 1.01024,-2.623079 1.98198,-5.268577 2.73681,-7.976232 0.20621,-0.739725 0.891,-2.213253 0.12801,-2.300232 -1.66703,-0.190043 -3.13933,1.185333 -4.70899,1.778002 -1.06114,2.090307 -2.18283,4.150958 -3.1834,6.270919 -3.00155,6.35952 -6.53841,14.734095 -9.11601,21.143727 -3.30374,8.215296 -7.30685,18.52128 -9.8739,26.975421 -1.3823,4.552343 -2.42262,9.201593 -3.63392,13.802393 -0.66358,5.37026 -2.75182,15.3171 -0.72221,21.18134 0.71802,2.07463 2.05601,4.37193 4.11037,5.14606 7.30245,2.75176 15.10726,-2.65699 20.4469,-6.24846 4.7225,-3.17637 8.9921,-6.97907 13.48815,-10.4686 17.01034,-14.96055 32.61725,-31.442554 47.67755,-48.340075 6.3041,-7.225303 3.6804,-4.268055 7.82711,-8.910587 -1.10745,-0.09536 -2.41855,-0.933136 -3.32235,-0.286076 -1.77222,1.268799 -2.52213,3.555691 -3.75507,5.353047 -2.03522,2.9669 -4.05097,5.947225 -6.04908,8.939245 -6.07343,9.09453 -11.04346,16.677166 -16.91616,25.984156 -2.91142,4.614 -5.75154,9.27261 -8.62731,13.90891 -8.25662,14.56506 -11.22239,18.89576 -17.97923,34.75105 -2.67154,6.26892 -5.19774,12.61738 -7.23615,19.11979 -3.10364,9.9004 -6.32979,21.07688 -3.65598,31.64335 0.83607,3.30402 3.4292,5.8909 5.1438,8.83634 3.39707,0.93591 6.66826,2.87719 10.19122,2.80774 9.57644,-0.1888 18.747,-5.55377 26.45087,-10.45288 8.47372,-5.38869 16.25578,-11.8161 23.75348,-18.46056 2.93497,-2.60098 5.71822,-5.36828 8.57733,-8.05242 0.18129,-0.21762 -2.89629,-2.78135 -3.07757,-2.56373 v 0 c -2.8783,2.59618 -5.6984,5.2584 -8.63492,7.78855 -7.19637,6.2005 -15.29997,12.84962 -23.27913,17.99798 -5.28377,3.40922 -15.31796,9.35673 -22.23071,10.25947 -2.76819,0.36149 -5.54504,-0.65319 -8.31756,-0.97978 -1.47449,-2.43616 -3.76989,-4.53688 -4.42347,-7.30849 -2.34189,-9.93111 1.07962,-20.94224 4.01206,-30.09815 2.04757,-6.39313 4.54664,-12.63971 7.1569,-18.82447 6.91267,-16.37892 9.10588,-19.42229 17.47542,-34.48712 8.30272,-13.3833 16.68742,-26.712395 25.09055,-40.032827 1.91792,-3.040248 3.87371,-6.05686 5.75849,-9.117764 1.21266,-1.969376 3.19975,-3.682889 3.53291,-5.971556 0.17233,-1.183814 -1.505,-1.859949 -2.25751,-2.789922 -4.69647,4.199747 -2.07757,1.733372 -8.54829,8.52298 -3.02169,3.170608 -6.02349,6.360157 -9.04993,9.526236 -12.49258,13.068985 -24.95474,26.205983 -38.51082,38.194853 -9.27003,7.50588 -12.6348,11.25912 -22.70385,16.23519 -1.5978,0.78963 -3.37469,1.94447 -5.11465,1.55843 -4.76117,-1.05635 -3.89358,-9.56332 -3.77545,-11.73641 0.21398,-3.93621 1.07091,-7.81097 1.60637,-11.71646 1.20257,-4.51632 2.24927,-9.07705 3.60772,-13.54895 2.46152,-8.103161 6.56116,-18.914618 9.64418,-26.833692 1.82945,-4.699164 6.44801,-16.101467 8.60924,-21.12273 0.88857,-2.064443 1.85739,-4.093411 2.78608,-6.140116 -0.46766,-1.223987 -0.5091,-2.713922 -1.40297,-3.671957 -0.38495,-0.412572 -0.30712,1.088388 -0.52,1.610958 -1.04699,2.570089 -2.1375,5.122632 -3.25746,7.66177 -8.59813,19.493428 -17.77725,38.726792 -27.165557,57.849897 -12.543192,24.83359 -14.948873,30.14453 -28.359216,54.50674 -4.428151,8.0445 -8.838107,16.10515 -13.589386,23.96314 -5.088594,8.41586 -10.235051,16.89224 -17.60153,23.54071 -1.074722,0.96997 -2.526353,1.41458 -3.789532,2.12186 -1.156338,-0.0341 -2.437035,0.42058 -3.469013,-0.1022 -1.161502,-0.58839 -1.867718,-1.84781 -2.558756,-2.95134 -2.339757,-3.73636 -3.386006,-9.09034 -4.158588,-13.39141 -0.175917,-0.97935 -0.281848,-1.96999 -0.422771,-2.95498 -0.0085,-0.22215 -3.150139,-0.10222 -3.141659,0.11993 z" />
    <circle
       id="path53"
       style="fill:#000000;stroke:#000000;stroke-width:0.264583"
       cx="-61.232143"
       cy="78.619049"
       r="0.02664165" />
    <circle
       id="path55"
       style="fill:#000000;stroke:#000000;stroke-width:0.264583"
       cx="155.34822"
       cy="105.45536"
       r="0.02664165" />
  </g>
</svg>
