<?xml version="1.0" encoding="UTF-8" standalone="no"?>
<svg
   xmlns:dc="http://purl.org/dc/elements/1.1/"
   xmlns:cc="http://creativecommons.org/ns#"
   xmlns:rdf="http://www.w3.org/1999/02/22-rdf-syntax-ns#"
   xmlns:svg="http://www.w3.org/2000/svg"
   xmlns="http://www.w3.org/2000/svg"
   xmlns:sodipodi="http://sodipodi.sourceforge.net/DTD/sodipodi-0.dtd"
   xmlns:inkscape="http://www.inkscape.org/namespaces/inkscape"
   width="210mm"
   height="297mm"
   viewBox="0 0 210 297"
   version="1.1"
   id="svg15"
   sodipodi:docname="z.svg"
   inkscape:version="1.0.1 (3bc2e813f5, 2020-09-07)">
  <defs
     id="defs9" />
  <sodipodi:namedview
     id="base"
     pagecolor="#ffffff"
     bordercolor="#666666"
     borderopacity="1.0"
     inkscape:pageopacity="0.0"
     inkscape:pageshadow="2"
     inkscape:zoom="0.7"
     inkscape:cx="293.09707"
     inkscape:cy="539.61759"
     inkscape:document-units="mm"
     inkscape:current-layer="layer1"
     inkscape:document-rotation="0"
     showgrid="false"
     inkscape:window-width="1094"
     inkscape:window-height="1035"
     inkscape:window-x="29"
     inkscape:window-y="47"
     inkscape:window-maximized="0" />
  <metadata
     id="metadata12">
    <rdf:RDF>
      <cc:Work
         rdf:about="">
        <dc:format>image/svg+xml</dc:format>
        <dc:type
           rdf:resource="http://purl.org/dc/dcmitype/StillImage" />
        <dc:title></dc:title>
      </cc:Work>
    </rdf:RDF>
  </metadata>
  <g
     inkscape:label="Layer 1"
     inkscape:groupmode="layer"
     id="layer1">
    <circle
       id="path25"
       style="fill:#000000;stroke:#000000;stroke-width:0.264583"
       cx="-66.523811"
       cy="73.327377"
       r="0.02664165" />
    <circle
       id="path31"
       style="fill:#000000;stroke:#000000;stroke-width:0.264583"
       cx="-40.821426"
       cy="8.3154764"
       r="0.02664165" />
    <circle
       id="path53"
       style="fill:#000000;stroke:#000000;stroke-width:0.264583"
       cx="-61.232143"
       cy="78.619049"
       r="0.02664165" />
    <path
       style="fill:#000000;stroke-width:0.264583"
       id="path111"
       d="m 80.897798,53.633981 c 1.422622,0.210907 2.83655,0.4925 4.267869,0.632721 16.774943,1.643391 33.646133,0.06863 50.359933,-1.454975 10.87632,-0.981993 21.70468,-2.41627 32.56904,-3.51033 2.29673,-0.231283 4.59473,-0.456854 6.89756,-0.616387 4.11925,-0.285371 2.99405,-0.477308 5.1759,0.06571 -0.33714,-0.177104 -0.63249,-0.569359 -1.01141,-0.531315 -0.54874,0.05509 -1.00565,0.465958 -1.45942,0.779396 -1.15216,0.795848 -2.23525,1.687373 -3.34608,2.539966 -1.50586,1.155795 -3.01646,2.305727 -4.50391,3.485129 -5.4847,4.348834 -6.66558,5.413142 -12.18569,10.054179 -12.03039,10.278774 -23.77026,20.906147 -35.12665,31.92667 -9.39416,9.116325 -14.71073,14.665555 -24.02092,24.161515 -25.446111,26.51206 -49.506898,54.34402 -72.545468,82.96635 -3.118554,3.87439 -6.170726,7.80174 -9.256089,11.70261 -1.822767,2.40835 -3.679067,4.7917 -5.468303,7.22507 -0.678168,0.92231 -2.3691466,1.78137 -1.9320351,2.83944 0.4496882,1.08851 2.3494011,1.25535 3.4393371,0.80912 1.325816,-0.5428 1.838772,-2.19823 2.717449,-3.32975 1.25687,-1.61855 2.452234,-3.28396 3.687879,-4.91877 1.549896,-2.05058 3.112463,-4.09155 4.668694,-6.13732 3.981539,-4.67763 7.930963,-9.64518 12.555883,-13.73213 2.400509,-2.12129 4.947076,-4.09408 7.635615,-5.83594 2.49309,-1.61522 5.068155,-3.18399 7.858678,-4.20254 7.000042,-2.55504 8.547664,-1.65309 15.407529,-0.90565 2.993731,1.43181 6.153621,2.55839 8.981199,4.29543 7.770545,4.77362 13.762752,10.6388 20.61832,16.58305 3.594512,3.1167 7.131282,6.30344 10.822642,9.3048 3.38949,2.75591 6.72828,5.61047 10.41118,7.95991 3.405,2.17217 7.17977,3.70137 10.76965,5.55205 3.48233,0.84475 6.86849,2.34839 10.44699,2.53426 9.33415,0.48482 16.78881,-2.1097 24.79068,-6.72008 8.07647,-4.65335 14.79849,-10.6576 20.38303,-18.09626 2.17697,-2.89974 3.65267,-6.26489 5.47901,-9.39734 0.95285,-4.77693 3.68736,-9.55459 -1.49684,-13.32981 -4.48244,-3.2642 -11.95298,-1.4687 -16.19951,0.38471 -3.3094,1.44439 -6.076,3.9033 -9.114,5.85496 -0.19648,0.17791 2.31963,2.95655 2.51611,2.77863 v 0 c 5.24968,-3.46326 8.44656,-6.55897 14.6062,-7.6266 1.70587,-0.29567 3.60884,-0.52379 5.19081,0.17961 1.26746,0.56357 2.42023,1.89292 2.57142,3.27176 0.25454,2.32124 -0.97425,4.56756 -1.46137,6.85134 -1.76054,2.91303 -3.20789,6.04004 -5.28161,8.73911 -5.39107,7.01681 -11.74383,12.68763 -19.41228,17.14806 -5.59615,3.25505 -14.08212,6.82892 -20.95574,6.57905 -3.32648,-0.12093 -6.49084,-1.47964 -9.73626,-2.21945 -3.4235,-1.74021 -7.03518,-3.15149 -10.27052,-5.22062 -3.62592,-2.31891 -6.88755,-5.16721 -10.22387,-7.88634 -3.6815,-3.00046 -7.22805,-6.16291 -10.822729,-9.26686 -7.345852,-6.34302 -13.068559,-12.0154 -21.44224,-17.0135 -3.165811,-1.88962 -6.68341,-3.11514 -10.025116,-4.67271 -3.271112,-0.21712 -6.544849,-0.90493 -9.81334,-0.65137 -6.684052,0.51854 -11.771394,2.98393 -17.270671,6.61798 -8.151715,5.38684 -14.58427,12.70151 -20.575506,20.31031 -10.8417644,14.70319 0.882984,-1.25023 -8.12192,11.13875 -0.819771,1.12784 -2.356705,1.97618 -2.485235,3.36454 -0.09984,1.07847 0.848833,2.60754 1.931899,2.61253 4.165728,0.0192 1.658723,-14.67077 8.038515,-9.56897 12.473057,-15.01565 24.954595,-30.027 37.640292,-44.86407 9.699109,-11.34399 20.519982,-23.82162 30.592667,-34.88535 4.461153,-4.90007 9.040704,-9.69103 13.561054,-14.53655 11.23079,-11.62032 22.46485,-23.24374 34.17852,-34.383454 3.2985,-3.13687 13.24122,-12.128423 16.70512,-15.223619 2.50128,-2.235039 5.02728,-4.442262 7.54092,-6.663391 4.58338,-3.908211 7.38837,-6.342173 11.979,-10.102117 1.46685,-1.201417 2.96614,-2.36274 4.43863,-3.557235 0.72336,-0.586791 5.10537,-3.835615 5.47568,-5.35676 0.21601,-0.887317 -0.54247,-1.744049 -0.8137,-2.616073 -1.01563,-0.177369 -2.01816,-0.463743 -3.0469,-0.532103 -2.93164,-0.194813 -9.11097,0.309806 -11.50653,0.511979 -10.88079,0.918287 -21.71855,2.290622 -32.58422,3.359531 -10.68515,0.98217 -21.37868,1.994651 -32.11471,2.219415 -2.947401,0.0617 -5.89643,0.02286 -8.844098,-0.02416 -2.335977,-0.03726 -4.673026,-0.08856 -7.005097,-0.22865 -1.400951,-0.08416 -2.791323,-0.295775 -4.186981,-0.443664 -0.206658,-0.08796 -1.450592,2.834611 -1.243936,2.922572 z" />
  </g>
</svg>
